# xmcd
#
# Track frame offsets:
#	150
#	11550
#	28200
#	44942
#	66092
#	90357
#	99135
#	116391
#	140165
#	157873
#
# Disc length: 2433 seconds
#
# Revision: 0
# Processed by: cddbd v1.5.2PL0 Copyright (c) Steve Scherf et al.
# Submitted via: EZCDAudioConverter 7.0.9.1
#
DISCID=7c097f0a
DTITLE=Chicken Shack - Broken Glass
DYEAR=1976
DGENRE=Blues
TTITLE0=Standing On The Border
TTITLE1=It's Allright
TTITLE2=Keep Your love
TTITLE3=Can't Keep You Satisfied
TTITLE4=Jersey Lightning
TTITLE5=It's Evil
TTITLE6=Ain't No magic
TTITLE7=Crying Smiling
TTITLE8=Take The water
TTITLE9=Broken Glass
EXTD=
EXTT0=
EXTT1=
EXTT2=
EXTT3=
EXTT4=
EXTT5=
EXTT6=
EXTT7=
EXTT8=
EXTT9=
PLAYORDER=
